<mxfile host="app.diagrams.net" modified="2021-10-19T12:37:36.223Z" agent="5.0 (Windows NT 10.0; Win64; x64) AppleWebKit/537.36 (KHTML, like Gecko) Chrome/94.0.4606.81 Safari/537.36" etag="Z32u3x3Za0Qz7OukGAtI" version="15.5.5" type="github" pages="3">
  <diagram id="CFkbVyRn0u2_PRZIqhRb" name="Page-1">
    <mxGraphModel dx="723" dy="407" grid="1" gridSize="10" guides="1" tooltips="1" connect="1" arrows="1" fold="1" page="1" pageScale="1" pageWidth="850" pageHeight="1100" math="0" shadow="0">
      <root>
        <mxCell id="0" />
        <mxCell id="1" parent="0" />
        <mxCell id="BmNOgJSCosuy1DcJjFHx-1" value="" style="whiteSpace=wrap;html=1;aspect=fixed;" vertex="1" parent="1">
          <mxGeometry x="230" y="30" width="460" height="460" as="geometry" />
        </mxCell>
        <mxCell id="BmNOgJSCosuy1DcJjFHx-3" value="" style="rounded=0;whiteSpace=wrap;html=1;rotation=90;" vertex="1" parent="1">
          <mxGeometry x="60" y="230" width="440" height="60" as="geometry" />
        </mxCell>
        <mxCell id="BmNOgJSCosuy1DcJjFHx-4" value="master data" style="shape=parallelogram;perimeter=parallelogramPerimeter;whiteSpace=wrap;html=1;fixedSize=1;" vertex="1" parent="1">
          <mxGeometry x="220" y="130" width="120" height="40" as="geometry" />
        </mxCell>
        <mxCell id="BmNOgJSCosuy1DcJjFHx-5" value="&lt;span style=&quot;font-family: &amp;#34;segoe ui&amp;#34; , , &amp;#34;apple color emoji&amp;#34; , &amp;#34;segoe ui emoji&amp;#34; , sans-serif ; font-size: 15px ; background-color: rgb(255 , 255 , 255)&quot;&gt;Allergies&lt;/span&gt;" style="rounded=0;whiteSpace=wrap;html=1;fillColor=#f8cecc;strokeColor=#b85450;" vertex="1" parent="1">
          <mxGeometry x="350" y="150" width="60" height="30" as="geometry" />
        </mxCell>
        <mxCell id="BmNOgJSCosuy1DcJjFHx-6" value="&lt;span style=&quot;font-family: &amp;#34;segoe ui&amp;#34; , , &amp;#34;apple color emoji&amp;#34; , &amp;#34;segoe ui emoji&amp;#34; , sans-serif ; font-size: 15px ; background-color: rgb(255 , 255 , 255)&quot;&gt;Diagnoses&lt;/span&gt;" style="rounded=0;whiteSpace=wrap;html=1;" vertex="1" parent="1">
          <mxGeometry x="500" y="145" width="70" height="40" as="geometry" />
        </mxCell>
        <mxCell id="BmNOgJSCosuy1DcJjFHx-8" value="&lt;span style=&quot;font-family: &amp;#34;segoe ui&amp;#34; , , &amp;#34;apple color emoji&amp;#34; , &amp;#34;segoe ui emoji&amp;#34; , sans-serif ; font-size: 15px ; background-color: rgb(255 , 255 , 255)&quot;&gt;Allergies&lt;/span&gt;" style="rounded=0;whiteSpace=wrap;html=1;" vertex="1" parent="1">
          <mxGeometry x="425" y="150" width="60" height="30" as="geometry" />
        </mxCell>
        <mxCell id="BmNOgJSCosuy1DcJjFHx-9" value="&lt;span style=&quot;font-family: &amp;#34;segoe ui&amp;#34; , , &amp;#34;apple color emoji&amp;#34; , &amp;#34;segoe ui emoji&amp;#34; , sans-serif ; font-size: 15px ; background-color: rgb(255 , 255 , 255)&quot;&gt;Allergies&lt;/span&gt;" style="rounded=0;whiteSpace=wrap;html=1;" vertex="1" parent="1">
          <mxGeometry x="590" y="150" width="60" height="30" as="geometry" />
        </mxCell>
        <mxCell id="BmNOgJSCosuy1DcJjFHx-10" value="" style="whiteSpace=wrap;html=1;aspect=fixed;fillColor=#f8cecc;strokeColor=#b85450;" vertex="1" parent="1">
          <mxGeometry x="350" y="200" width="260" height="260" as="geometry" />
        </mxCell>
        <mxCell id="BmNOgJSCosuy1DcJjFHx-11" value="EDIT" style="rounded=0;whiteSpace=wrap;html=1;fillColor=#f5f5f5;fontColor=#333333;strokeColor=#666666;" vertex="1" parent="1">
          <mxGeometry x="350" y="220" width="120" height="60" as="geometry" />
        </mxCell>
        <mxCell id="BmNOgJSCosuy1DcJjFHx-12" value="ADD" style="rounded=1;whiteSpace=wrap;html=1;fillColor=#f5f5f5;fontColor=#333333;strokeColor=#666666;" vertex="1" parent="1">
          <mxGeometry x="397.5" y="700" width="120" height="60" as="geometry" />
        </mxCell>
        <mxCell id="BmNOgJSCosuy1DcJjFHx-13" value="CODE&lt;br&gt;INPUT" style="rounded=0;whiteSpace=wrap;html=1;" vertex="1" parent="1">
          <mxGeometry x="365" y="300" width="120" height="60" as="geometry" />
        </mxCell>
        <mxCell id="BmNOgJSCosuy1DcJjFHx-14" value="Edit" style="ellipse;whiteSpace=wrap;html=1;aspect=fixed;" vertex="1" parent="1">
          <mxGeometry x="500" y="300" width="50" height="50" as="geometry" />
        </mxCell>
        <mxCell id="BmNOgJSCosuy1DcJjFHx-15" value="" style="ellipse;whiteSpace=wrap;html=1;" vertex="1" parent="1">
          <mxGeometry x="560" y="300" width="50" height="45" as="geometry" />
        </mxCell>
        <mxCell id="BmNOgJSCosuy1DcJjFHx-16" value="" style="whiteSpace=wrap;html=1;aspect=fixed;" vertex="1" parent="1">
          <mxGeometry x="290" y="540" width="340" height="340" as="geometry" />
        </mxCell>
        <mxCell id="BmNOgJSCosuy1DcJjFHx-17" value="dsfsdfsdf" style="rounded=1;whiteSpace=wrap;html=1;" vertex="1" parent="1">
          <mxGeometry x="305" y="560" width="235" height="20" as="geometry" />
        </mxCell>
        <mxCell id="BmNOgJSCosuy1DcJjFHx-18" value="search" style="ellipse;whiteSpace=wrap;html=1;" vertex="1" parent="1">
          <mxGeometry x="560" y="555" width="40" height="30" as="geometry" />
        </mxCell>
        <mxCell id="BmNOgJSCosuy1DcJjFHx-19" value="ADD NEW" style="ellipse;whiteSpace=wrap;html=1;" vertex="1" parent="1">
          <mxGeometry x="340" y="660" width="230" height="80" as="geometry" />
        </mxCell>
        <mxCell id="BmNOgJSCosuy1DcJjFHx-20" value="add form" style="rounded=1;whiteSpace=wrap;html=1;" vertex="1" parent="1">
          <mxGeometry x="325" y="760" width="270" height="100" as="geometry" />
        </mxCell>
      </root>
    </mxGraphModel>
  </diagram>
  <diagram id="NDMRwvuj7xQAbgxvVtRo" name="Page-2">
    <mxGraphModel dx="868" dy="488" grid="1" gridSize="10" guides="1" tooltips="1" connect="1" arrows="1" fold="1" page="1" pageScale="1" pageWidth="850" pageHeight="1100" math="0" shadow="0">
      <root>
        <mxCell id="MH70zzdr1bd8cLNUw7vy-0" />
        <mxCell id="MH70zzdr1bd8cLNUw7vy-1" parent="MH70zzdr1bd8cLNUw7vy-0" />
        <mxCell id="MH70zzdr1bd8cLNUw7vy-2" value="" style="whiteSpace=wrap;html=1;aspect=fixed;" vertex="1" parent="MH70zzdr1bd8cLNUw7vy-1">
          <mxGeometry x="120" y="30" width="450" height="450" as="geometry" />
        </mxCell>
        <mxCell id="MH70zzdr1bd8cLNUw7vy-3" value="" style="rounded=1;whiteSpace=wrap;html=1;rotation=90;" vertex="1" parent="MH70zzdr1bd8cLNUw7vy-1">
          <mxGeometry x="-65" y="225" width="450" height="60" as="geometry" />
        </mxCell>
        <mxCell id="MH70zzdr1bd8cLNUw7vy-4" value="" style="rounded=0;whiteSpace=wrap;html=1;" vertex="1" parent="MH70zzdr1bd8cLNUw7vy-1">
          <mxGeometry x="300" y="540" width="300" height="320" as="geometry" />
        </mxCell>
        <mxCell id="MH70zzdr1bd8cLNUw7vy-5" value="" style="rounded=1;whiteSpace=wrap;html=1;" vertex="1" parent="MH70zzdr1bd8cLNUw7vy-1">
          <mxGeometry x="240" y="140" width="280" height="10" as="geometry" />
        </mxCell>
        <mxCell id="MH70zzdr1bd8cLNUw7vy-6" value="" style="rounded=1;whiteSpace=wrap;html=1;" vertex="1" parent="MH70zzdr1bd8cLNUw7vy-1">
          <mxGeometry x="240" y="160" width="280" height="10" as="geometry" />
        </mxCell>
        <mxCell id="MH70zzdr1bd8cLNUw7vy-7" value="" style="rounded=1;whiteSpace=wrap;html=1;" vertex="1" parent="MH70zzdr1bd8cLNUw7vy-1">
          <mxGeometry x="240" y="180" width="280" height="10" as="geometry" />
        </mxCell>
        <mxCell id="MH70zzdr1bd8cLNUw7vy-8" value="" style="rounded=1;whiteSpace=wrap;html=1;" vertex="1" parent="MH70zzdr1bd8cLNUw7vy-1">
          <mxGeometry x="240" y="200" width="280" height="10" as="geometry" />
        </mxCell>
        <mxCell id="h_y1YE4xYrK0sMeKNsga-0" value="" style="rounded=0;whiteSpace=wrap;html=1;" vertex="1" parent="MH70zzdr1bd8cLNUw7vy-1">
          <mxGeometry x="320" y="570" width="100" height="30" as="geometry" />
        </mxCell>
        <mxCell id="h_y1YE4xYrK0sMeKNsga-1" value="" style="rounded=0;whiteSpace=wrap;html=1;" vertex="1" parent="MH70zzdr1bd8cLNUw7vy-1">
          <mxGeometry x="450" y="570" width="130" height="30" as="geometry" />
        </mxCell>
        <mxCell id="h_y1YE4xYrK0sMeKNsga-2" value="" style="rounded=0;whiteSpace=wrap;html=1;" vertex="1" parent="MH70zzdr1bd8cLNUw7vy-1">
          <mxGeometry x="310" y="685" width="110" height="20" as="geometry" />
        </mxCell>
        <mxCell id="h_y1YE4xYrK0sMeKNsga-3" value="" style="rounded=1;whiteSpace=wrap;html=1;" vertex="1" parent="MH70zzdr1bd8cLNUw7vy-1">
          <mxGeometry x="460" y="680" width="130" height="30" as="geometry" />
        </mxCell>
        <mxCell id="h_y1YE4xYrK0sMeKNsga-4" value="" style="rounded=1;whiteSpace=wrap;html=1;" vertex="1" parent="MH70zzdr1bd8cLNUw7vy-1">
          <mxGeometry x="310" y="630" width="120" height="20" as="geometry" />
        </mxCell>
        <mxCell id="h_y1YE4xYrK0sMeKNsga-5" value="" style="ellipse;whiteSpace=wrap;html=1;" vertex="1" parent="MH70zzdr1bd8cLNUw7vy-1">
          <mxGeometry x="405" y="780" width="90" height="40" as="geometry" />
        </mxCell>
      </root>
    </mxGraphModel>
  </diagram>
  <diagram id="gFxM0qnhvbSuVxEKj8RT" name="Page-3">
    <mxGraphModel dx="868" dy="488" grid="1" gridSize="10" guides="1" tooltips="1" connect="1" arrows="1" fold="1" page="1" pageScale="1" pageWidth="850" pageHeight="1100" math="0" shadow="0">
      <root>
        <mxCell id="tOYbJmcB-Ztfz13eu0Xh-0" />
        <mxCell id="tOYbJmcB-Ztfz13eu0Xh-1" parent="tOYbJmcB-Ztfz13eu0Xh-0" />
        <mxCell id="tOYbJmcB-Ztfz13eu0Xh-2" value="" style="rounded=0;whiteSpace=wrap;html=1;" vertex="1" parent="tOYbJmcB-Ztfz13eu0Xh-1">
          <mxGeometry x="250" y="30" width="520" height="450" as="geometry" />
        </mxCell>
        <mxCell id="tOYbJmcB-Ztfz13eu0Xh-3" value="Upcoming appoiment" style="rounded=0;whiteSpace=wrap;html=1;" vertex="1" parent="tOYbJmcB-Ztfz13eu0Xh-1">
          <mxGeometry x="640" y="60" width="120" height="100" as="geometry" />
        </mxCell>
        <mxCell id="tOYbJmcB-Ztfz13eu0Xh-4" value="privous" style="rounded=0;whiteSpace=wrap;html=1;" vertex="1" parent="tOYbJmcB-Ztfz13eu0Xh-1">
          <mxGeometry x="640" y="182.5" width="120" height="87.5" as="geometry" />
        </mxCell>
        <mxCell id="tOYbJmcB-Ztfz13eu0Xh-5" value="privous" style="rounded=0;whiteSpace=wrap;html=1;" vertex="1" parent="tOYbJmcB-Ztfz13eu0Xh-1">
          <mxGeometry x="640" y="310" width="120" height="87.5" as="geometry" />
        </mxCell>
      </root>
    </mxGraphModel>
  </diagram>
</mxfile>
